<mxfile host="app.diagrams.net" agent="Mozilla/5.0 (Windows NT 10.0; Win64; x64) AppleWebKit/537.36 (KHTML, like Gecko) Chrome/133.0.0.0 Safari/537.36" version="26.0.16">
  <diagram name="Página-1" id="ox3iCsVStKZ6-Tt3WGst">
    <mxGraphModel dx="794" dy="446" grid="1" gridSize="10" guides="1" tooltips="1" connect="1" arrows="1" fold="1" page="1" pageScale="1" pageWidth="827" pageHeight="1169" math="0" shadow="0">
      <root>
        <mxCell id="0" />
        <mxCell id="1" parent="0" />
        <mxCell id="Z59YFpSG7G4thyZyW3da-3" value="" style="edgeStyle=orthogonalEdgeStyle;rounded=0;orthogonalLoop=1;jettySize=auto;html=1;" edge="1" parent="1" source="Z59YFpSG7G4thyZyW3da-1" target="Z59YFpSG7G4thyZyW3da-2">
          <mxGeometry relative="1" as="geometry" />
        </mxCell>
        <mxCell id="Z59YFpSG7G4thyZyW3da-1" value="Inicio" style="rounded=1;whiteSpace=wrap;html=1;" vertex="1" parent="1">
          <mxGeometry x="280" y="40" width="120" height="40" as="geometry" />
        </mxCell>
        <mxCell id="Z59YFpSG7G4thyZyW3da-5" value="" style="edgeStyle=orthogonalEdgeStyle;rounded=0;orthogonalLoop=1;jettySize=auto;html=1;entryX=-0.008;entryY=0.383;entryDx=0;entryDy=0;entryPerimeter=0;" edge="1" parent="1" source="Z59YFpSG7G4thyZyW3da-2" target="Z59YFpSG7G4thyZyW3da-12">
          <mxGeometry relative="1" as="geometry">
            <mxPoint x="520" y="200" as="targetPoint" />
          </mxGeometry>
        </mxCell>
        <mxCell id="Z59YFpSG7G4thyZyW3da-14" style="edgeStyle=orthogonalEdgeStyle;rounded=0;orthogonalLoop=1;jettySize=auto;html=1;exitX=0.5;exitY=1;exitDx=0;exitDy=0;entryX=0.5;entryY=0;entryDx=0;entryDy=0;" edge="1" parent="1" source="Z59YFpSG7G4thyZyW3da-2" target="Z59YFpSG7G4thyZyW3da-13">
          <mxGeometry relative="1" as="geometry" />
        </mxCell>
        <mxCell id="Z59YFpSG7G4thyZyW3da-15" value="Não" style="edgeLabel;html=1;align=center;verticalAlign=middle;resizable=0;points=[];" vertex="1" connectable="0" parent="Z59YFpSG7G4thyZyW3da-14">
          <mxGeometry x="-0.2533" y="1" relative="1" as="geometry">
            <mxPoint x="-21" as="offset" />
          </mxGeometry>
        </mxCell>
        <mxCell id="Z59YFpSG7G4thyZyW3da-2" value="A lâmpada está acesa?" style="rhombus;whiteSpace=wrap;html=1;rounded=1;" vertex="1" parent="1">
          <mxGeometry x="260" y="160" width="160" height="80" as="geometry" />
        </mxCell>
        <mxCell id="Z59YFpSG7G4thyZyW3da-9" style="edgeStyle=orthogonalEdgeStyle;rounded=0;orthogonalLoop=1;jettySize=auto;html=1;exitX=0.5;exitY=0;exitDx=0;exitDy=0;" edge="1" parent="1">
          <mxGeometry relative="1" as="geometry">
            <mxPoint x="340" y="120" as="targetPoint" />
            <mxPoint x="580" y="170" as="sourcePoint" />
            <Array as="points">
              <mxPoint x="580" y="120" />
            </Array>
          </mxGeometry>
        </mxCell>
        <mxCell id="Z59YFpSG7G4thyZyW3da-6" value="Sim" style="text;html=1;align=center;verticalAlign=middle;resizable=0;points=[];autosize=1;strokeColor=none;fillColor=none;" vertex="1" parent="1">
          <mxGeometry x="460" y="178" width="40" height="30" as="geometry" />
        </mxCell>
        <mxCell id="Z59YFpSG7G4thyZyW3da-12" value="Vá para outro cômodo." style="whiteSpace=wrap;html=1;aspect=fixed;" vertex="1" parent="1">
          <mxGeometry x="540" y="170" width="80" height="80" as="geometry" />
        </mxCell>
        <mxCell id="Z59YFpSG7G4thyZyW3da-18" style="edgeStyle=orthogonalEdgeStyle;rounded=0;orthogonalLoop=1;jettySize=auto;html=1;exitX=0.5;exitY=1;exitDx=0;exitDy=0;entryX=0.5;entryY=0;entryDx=0;entryDy=0;" edge="1" parent="1" source="Z59YFpSG7G4thyZyW3da-13" target="Z59YFpSG7G4thyZyW3da-16">
          <mxGeometry relative="1" as="geometry" />
        </mxCell>
        <mxCell id="Z59YFpSG7G4thyZyW3da-13" value="Aperte o interruptor" style="whiteSpace=wrap;html=1;aspect=fixed;" vertex="1" parent="1">
          <mxGeometry x="300" y="290" width="80" height="80" as="geometry" />
        </mxCell>
        <mxCell id="Z59YFpSG7G4thyZyW3da-19" style="edgeStyle=orthogonalEdgeStyle;rounded=0;orthogonalLoop=1;jettySize=auto;html=1;exitX=1;exitY=0.5;exitDx=0;exitDy=0;" edge="1" parent="1" source="Z59YFpSG7G4thyZyW3da-16">
          <mxGeometry relative="1" as="geometry">
            <mxPoint x="580" y="260" as="targetPoint" />
          </mxGeometry>
        </mxCell>
        <mxCell id="Z59YFpSG7G4thyZyW3da-20" value="Sim" style="edgeLabel;html=1;align=center;verticalAlign=middle;resizable=0;points=[];" vertex="1" connectable="0" parent="Z59YFpSG7G4thyZyW3da-19">
          <mxGeometry x="-0.6881" y="4" relative="1" as="geometry">
            <mxPoint x="5" y="-6" as="offset" />
          </mxGeometry>
        </mxCell>
        <mxCell id="Z59YFpSG7G4thyZyW3da-23" style="edgeStyle=orthogonalEdgeStyle;rounded=0;orthogonalLoop=1;jettySize=auto;html=1;exitX=0.5;exitY=1;exitDx=0;exitDy=0;entryX=0.5;entryY=0;entryDx=0;entryDy=0;" edge="1" parent="1" source="Z59YFpSG7G4thyZyW3da-16" target="Z59YFpSG7G4thyZyW3da-22">
          <mxGeometry relative="1" as="geometry" />
        </mxCell>
        <mxCell id="Z59YFpSG7G4thyZyW3da-24" value="Não" style="edgeLabel;html=1;align=center;verticalAlign=middle;resizable=0;points=[];" vertex="1" connectable="0" parent="Z59YFpSG7G4thyZyW3da-23">
          <mxGeometry x="-0.1143" relative="1" as="geometry">
            <mxPoint x="-20" as="offset" />
          </mxGeometry>
        </mxCell>
        <mxCell id="Z59YFpSG7G4thyZyW3da-16" value="A lâmpada acendeu?" style="rhombus;whiteSpace=wrap;html=1;rounded=1;" vertex="1" parent="1">
          <mxGeometry x="260" y="410" width="160" height="80" as="geometry" />
        </mxCell>
        <mxCell id="Z59YFpSG7G4thyZyW3da-34" style="edgeStyle=orthogonalEdgeStyle;rounded=0;orthogonalLoop=1;jettySize=auto;html=1;exitX=0.5;exitY=1;exitDx=0;exitDy=0;entryX=0.5;entryY=0;entryDx=0;entryDy=0;" edge="1" parent="1" source="Z59YFpSG7G4thyZyW3da-22" target="Z59YFpSG7G4thyZyW3da-33">
          <mxGeometry relative="1" as="geometry" />
        </mxCell>
        <mxCell id="Z59YFpSG7G4thyZyW3da-22" value="*Encontre uma lâmpada nova.&lt;div&gt;*Retire da embalagem.&lt;/div&gt;&lt;div&gt;*Retire a lâmpada queimada.&lt;/div&gt;&lt;div&gt;*Coloque a lâmpada nova.&lt;/div&gt;" style="whiteSpace=wrap;html=1;aspect=fixed;" vertex="1" parent="1">
          <mxGeometry x="270" y="560" width="140" height="140" as="geometry" />
        </mxCell>
        <mxCell id="Z59YFpSG7G4thyZyW3da-39" value="" style="edgeStyle=orthogonalEdgeStyle;rounded=0;orthogonalLoop=1;jettySize=auto;html=1;" edge="1" parent="1" source="Z59YFpSG7G4thyZyW3da-33" target="Z59YFpSG7G4thyZyW3da-38">
          <mxGeometry relative="1" as="geometry" />
        </mxCell>
        <mxCell id="Z59YFpSG7G4thyZyW3da-43" value="Sim" style="edgeLabel;html=1;align=center;verticalAlign=middle;resizable=0;points=[];" vertex="1" connectable="0" parent="Z59YFpSG7G4thyZyW3da-39">
          <mxGeometry x="-0.0815" y="3" relative="1" as="geometry">
            <mxPoint x="-23" as="offset" />
          </mxGeometry>
        </mxCell>
        <mxCell id="Z59YFpSG7G4thyZyW3da-41" style="edgeStyle=orthogonalEdgeStyle;rounded=0;orthogonalLoop=1;jettySize=auto;html=1;exitX=0;exitY=0.5;exitDx=0;exitDy=0;entryX=0;entryY=0.5;entryDx=0;entryDy=0;" edge="1" parent="1" source="Z59YFpSG7G4thyZyW3da-33" target="Z59YFpSG7G4thyZyW3da-13">
          <mxGeometry relative="1" as="geometry" />
        </mxCell>
        <mxCell id="Z59YFpSG7G4thyZyW3da-42" value="Não" style="edgeLabel;html=1;align=center;verticalAlign=middle;resizable=0;points=[];" vertex="1" connectable="0" parent="Z59YFpSG7G4thyZyW3da-41">
          <mxGeometry x="0.0424" y="-5" relative="1" as="geometry">
            <mxPoint as="offset" />
          </mxGeometry>
        </mxCell>
        <mxCell id="Z59YFpSG7G4thyZyW3da-33" value="A lâmpada acendeu?" style="rhombus;whiteSpace=wrap;html=1;rounded=1;" vertex="1" parent="1">
          <mxGeometry x="260" y="760" width="160" height="80" as="geometry" />
        </mxCell>
        <mxCell id="Z59YFpSG7G4thyZyW3da-38" value="Fim" style="rounded=1;whiteSpace=wrap;html=1;" vertex="1" parent="1">
          <mxGeometry x="280" y="930" width="120" height="60" as="geometry" />
        </mxCell>
      </root>
    </mxGraphModel>
  </diagram>
</mxfile>
